/* XPM */
static char *dummy[]={
"16 16 3 1",
". c #000000",
"a c #999900",
"# c #ffffff",
".###.#....#.....",
".###.#.##.#.####",
".#.#.#....#.##..",
".#.#.#.####.###.",
".....#.####.....",
"################",
"#####......#####",
"#####.aaaa.#####",
"#####.aaaa.#####",
"#####.aaaa.#####",
"###...aaaa...###",
"###.aaaaaaaa.###",
"####.aaaaaa.####",
"#####.aaaa.#####",
"######.aa.######",
"#######..#######"};
