/* XPM */
static char *dummy[]={
"16 16 3 1",
"# c #000000",
". c #ff0000",
"a c #ffffff",
".......##.......",
"......#..#......",
".........#......",
".......##.......",
"................",
".......#........",
"................",
".....######.....",
".....#aaaa#.....",
".....#aaaa#.....",
"...###aaaa###...",
"...#aaaaaaaa#...",
"....#aaaaaa#....",
".....#aaaa#.....",
"......#aa#......",
".......##......."};
